<svg width="120" height="120" viewBox="0 0 120 120" fill="none" xmlns="http://www.w3.org/2000/svg">
<g clip-path="url(#clip0)">
<rect width="120" height="120" rx="30" fill="white"/>
<path d="M111.895 81.0879C109.875 84.3535 107.146 87.5977 103.709 90.8203C100.271 94 96.3398 96.8789 91.9141 99.457C87.5312 101.992 82.7402 104.033 77.541 105.58C72.3418 107.17 66.9707 107.965 61.4277 107.965C57.0879 107.965 52.748 107.578 48.4082 106.805C44.1113 106.031 39.9648 104.85 35.9688 103.26C32.0156 101.67 28.3203 99.6719 24.8828 97.2656C21.4883 94.8164 18.5234 91.9375 15.9883 88.6289C13.4531 85.3203 11.4551 81.5605 9.99414 77.3496C8.57617 73.1387 7.86719 68.4551 7.86719 63.2988C7.86719 58.2715 8.59766 53.502 10.0586 48.9902C11.5625 44.4785 13.6465 40.3105 16.3105 36.4863C18.9746 32.6191 22.1328 29.1387 25.7852 26.0449C29.4375 22.9512 33.4336 20.3301 37.7734 18.1816C42.1133 15.9902 46.6895 14.3145 51.502 13.1543C56.3145 11.9941 61.2344 11.4141 66.2617 11.4141C71.8047 11.4141 77.0039 12.0801 81.8594 13.4121C86.7578 14.7012 91.0332 16.5488 94.6855 18.9551C98.3379 21.3184 101.217 24.1758 103.322 27.5273C105.471 30.8359 106.545 34.5313 106.545 38.6133C106.545 42.3945 105.664 46.0039 103.902 49.4414C102.141 52.8359 99.7129 55.8223 96.6191 58.4004C93.5684 60.9785 89.9805 63.0195 85.8555 64.5234C81.7734 66.0273 77.4121 66.7793 72.7715 66.7793C69.0332 66.7793 65.7246 66.3281 62.8457 65.4258C59.9668 64.4805 57.5605 63.1914 55.627 61.5586C53.6934 59.9258 52.2324 58.0137 51.2441 55.8223C50.2559 53.6309 49.7617 51.2676 49.7617 48.7324C49.7617 46.627 50.084 44.7148 50.7285 42.9961C51.416 41.2344 52.1465 39.7305 52.9199 38.4844C53.7363 37.2383 54.4883 36.2715 55.1758 35.584C55.9062 34.8535 56.3145 34.4453 56.4004 34.3594C56.6152 34.1445 56.8516 34.0156 57.1094 33.9727C57.4102 33.8867 57.6895 33.8438 57.9473 33.8438C58.6348 33.8438 59.2148 34.0586 59.6875 34.4883C60.1602 34.918 60.3965 35.4766 60.3965 36.1641C60.3965 36.9375 60.1172 37.582 59.5586 38.0977C59.4727 38.1406 59.1719 38.4414 58.6562 39C58.1406 39.5156 57.582 40.2461 56.9805 41.1914C56.3789 42.0938 55.8203 43.1895 55.3047 44.4785C54.832 45.7676 54.5957 47.1855 54.5957 48.7324C54.5957 51.1816 55.1328 53.2441 56.207 54.9199C57.3242 56.5957 58.7637 57.9707 60.5254 59.0449C62.2871 60.0762 64.2422 60.8281 66.3906 61.3008C68.5391 61.7305 70.6875 61.9453 72.8359 61.9453C76.832 61.9453 80.5703 61.3008 84.0508 60.0117C87.5742 58.7227 90.6465 57.0039 93.2676 54.8555C95.8887 52.707 97.9512 50.2363 99.4551 47.4434C100.959 44.6504 101.711 41.7285 101.711 38.6777C101.711 35.3262 100.766 32.2754 98.875 29.5254C96.9844 26.7324 94.4277 24.3691 91.2051 22.4355C87.9824 20.459 84.2012 18.9336 79.8613 17.8594C75.5645 16.7852 70.9668 16.248 66.0684 16.248C62.373 16.248 58.4844 16.6992 54.4023 17.6016C50.3633 18.4609 46.3672 19.7715 42.4141 21.5332C38.4609 23.2949 34.6797 25.4863 31.0703 28.1074C27.5039 30.7285 24.3672 33.8008 21.6602 37.3242C18.9531 40.8047 16.7832 44.7148 15.1504 49.0547C13.5605 53.3945 12.7656 58.1426 12.7656 63.2988C12.7656 67.9824 13.4102 72.2148 14.6992 75.9961C16.0312 79.7773 17.8574 83.1504 20.1777 86.1152C22.498 89.0371 25.2051 91.5723 28.2988 93.7207C31.4355 95.8691 34.7871 97.6523 38.3535 99.0703C41.9629 100.445 45.7227 101.477 49.6328 102.164C53.543 102.809 57.4316 103.131 61.2988 103.131C66.4551 103.131 71.418 102.422 76.1875 101.004C80.957 99.543 85.3613 97.6523 89.4004 95.332C93.4824 92.9688 97.0918 90.3262 100.229 87.4043C103.365 84.4824 105.857 81.5391 107.705 78.5742C107.92 78.1875 108.221 77.9082 108.607 77.7363C108.994 77.5215 109.402 77.4141 109.832 77.4141C110.562 77.4141 111.143 77.6719 111.572 78.1875C112.002 78.6602 112.217 79.1973 112.217 79.7988C112.217 80.0137 112.195 80.2285 112.152 80.4434C112.109 80.6582 112.023 80.873 111.895 81.0879Z" fill="black"/>
</g>
<defs>
<clipPath id="clip0">
<rect width="120" height="120" rx="30" fill="white"/>
</clipPath>
</defs>
</svg>
