<svg width="120" height="120" viewBox="0 0 120 120" fill="none" xmlns="http://www.w3.org/2000/svg">
<g clip-path="url(#clip0)">
<path d="M118.607 83.8271C116.312 87.5381 113.212 91.2246 109.306 94.8867C105.399 98.5 100.932 101.771 95.9023 104.701C90.9219 107.582 85.4775 109.901 79.5693 111.659C73.6611 113.466 67.5576 114.369 61.2588 114.369C56.3271 114.369 51.3955 113.93 46.4639 113.051C41.5811 112.172 36.8691 110.829 32.3281 109.022C27.8359 107.216 23.6367 104.945 19.7305 102.211C15.873 99.4277 12.5039 96.1562 9.62305 92.3965C6.74219 88.6367 4.47168 84.3643 2.81152 79.5791C1.2002 74.7939 0.394531 69.4717 0.394531 63.6123C0.394531 57.8994 1.22461 52.4795 2.88477 47.3525C4.59375 42.2256 6.96191 37.4893 9.98926 33.1436C13.0166 28.749 16.6055 24.7939 20.7559 21.2783C24.9062 17.7627 29.4473 14.7842 34.3789 12.3428C39.3105 9.85254 44.5107 7.94824 49.9795 6.62988C55.4482 5.31152 61.0391 4.65234 66.752 4.65234C73.0508 4.65234 78.959 5.40918 84.4766 6.92285C90.043 8.3877 94.9014 10.4873 99.0518 13.2217C103.202 15.9072 106.474 19.1543 108.866 22.9629C111.308 26.7227 112.528 30.9219 112.528 35.5605C112.528 39.8574 111.527 43.959 109.525 47.8652C107.523 51.7227 104.765 55.1162 101.249 58.0459C97.7822 60.9756 93.7051 63.2949 89.0176 65.0039C84.3789 66.7129 79.4229 67.5674 74.1494 67.5674C69.9014 67.5674 66.1416 67.0547 62.8701 66.0293C59.5986 64.9551 56.8643 63.4902 54.667 61.6348C52.4697 59.7793 50.8096 57.6064 49.6865 55.1162C48.5635 52.626 48.002 49.9404 48.002 47.0596C48.002 44.667 48.3682 42.4941 49.1006 40.541C49.8818 38.5391 50.7119 36.8301 51.5908 35.4141C52.5186 33.998 53.373 32.8994 54.1543 32.1182C54.9844 31.2881 55.4482 30.8242 55.5459 30.7266C55.79 30.4824 56.0586 30.3359 56.3516 30.2871C56.6934 30.1895 57.0107 30.1406 57.3037 30.1406C58.085 30.1406 58.7441 30.3848 59.2812 30.873C59.8184 31.3613 60.0869 31.9961 60.0869 32.7773C60.0869 33.6562 59.7695 34.3887 59.1348 34.9746C59.0371 35.0234 58.6953 35.3652 58.1094 36C57.5234 36.5859 56.8887 37.416 56.2051 38.4902C55.5215 39.5156 54.8867 40.7607 54.3008 42.2256C53.7637 43.6904 53.4951 45.3018 53.4951 47.0596C53.4951 49.8428 54.1055 52.1865 55.3262 54.0908C56.5957 55.9951 58.2314 57.5576 60.2334 58.7783C62.2354 59.9502 64.457 60.8047 66.8984 61.3418C69.3398 61.8301 71.7812 62.0742 74.2227 62.0742C78.7637 62.0742 83.0117 61.3418 86.9668 59.877C90.9707 58.4121 94.4619 56.459 97.4404 54.0176C100.419 51.5762 102.763 48.7686 104.472 45.5947C106.181 42.4209 107.035 39.1006 107.035 35.6338C107.035 31.8252 105.961 28.3584 103.812 25.2334C101.664 22.0596 98.7588 19.374 95.0967 17.1768C91.4346 14.9307 87.1377 13.1973 82.2061 11.9766C77.3232 10.7559 72.0986 10.1455 66.5322 10.1455C62.333 10.1455 57.9141 10.6582 53.2754 11.6836C48.6855 12.6602 44.1445 14.1494 39.6523 16.1514C35.1602 18.1533 30.8633 20.6436 26.7617 23.6221C22.709 26.6006 19.1445 30.0918 16.0684 34.0957C12.9922 38.0508 10.5264 42.4941 8.6709 47.4258C6.86426 52.3574 5.96094 57.7529 5.96094 63.6123C5.96094 68.9346 6.69336 73.7441 8.1582 78.041C9.67188 82.3379 11.7471 86.1709 14.3838 89.54C17.0205 92.8604 20.0967 95.7412 23.6123 98.1826C27.1768 100.624 30.9854 102.65 35.0381 104.262C39.1396 105.824 43.4121 106.996 47.8555 107.777C52.2988 108.51 56.7178 108.876 61.1123 108.876C66.9717 108.876 72.6113 108.07 78.0312 106.459C83.4512 104.799 88.4561 102.65 93.0459 100.014C97.6846 97.3281 101.786 94.3252 105.351 91.0049C108.915 87.6846 111.747 84.3398 113.847 80.9707C114.091 80.5312 114.433 80.2139 114.872 80.0186C115.312 79.7744 115.775 79.6523 116.264 79.6523C117.094 79.6523 117.753 79.9453 118.241 80.5312C118.729 81.0684 118.974 81.6787 118.974 82.3623C118.974 82.6064 118.949 82.8506 118.9 83.0947C118.852 83.3389 118.754 83.583 118.607 83.8271Z" fill="black"/>
</g>
<defs>
<clipPath id="clip0">
<rect width="120" height="120" fill="white"/>
</clipPath>
</defs>
</svg>
